<svg width="60" height="60" viewBox="0 0 60 60" fill="none" xmlns="http://www.w3.org/2000/svg">
  <circle cx="30" cy="30" r="30" fill="none"/>
  <path d="M30,4.42857143 C44.12271,4.42857143 55.5714286,15.87729 55.5714286,30 C55.5714286,44.12271 44.12271,55.5714286 30,55.5714286 C15.87729,55.5714286 4.42857143,44.12271 4.42857143,30 C4.42857143,15.87729 15.87729,4.42857143 30,4.42857143 Z M30,6.42857143 C16.9818595,6.42857143 6.42857143,16.9818595 6.42857143,30 C6.42857143,43.0181405 16.9818595,53.5714286 30,53.5714286 C43.0181405,53.5714286 53.5714286,43.0181405 53.5714286,30 C53.5714286,16.9818595 43.0181405,6.42857143 30,6.42857143 Z" fill="currentColor"/>
  <circle cx="30" cy="15" r="4" fill="currentColor"/>
  <path d="M30 22C30 22 22 24 18 25C17 25.3 17 26.5 18 27C22 28.5 27 29 30 29C33 29 38 28.5 42 27C43 26.5 43 25.3 42 25C38 24 30 22 30 22Z" fill="currentColor"/>
  <path d="M26 30L24 42C23.8 43 24.5 44 25.5 44C26.3 44 27 43.5 27.2 42.7L29 35H31L32.8 42.7C33 43.5 33.7 44 34.5 44C35.5 44 36.2 43 36 42L34 30H26Z" fill="currentColor"/>
</svg>
