<svg xmlns="http://www.w3.org/2000/svg" viewBox="0 0 48 48" width="48" height="48">
  <path fill="#1565c0" d="M39.5,26c0-0.2,0-0.4,0-0.5c0-5.8-4.7-10.5-10.5-10.5c-3.8,0-7.2,2.1-9,5.2c-1-0.5-2.1-0.7-3.2-0.7 c-4.1,0-7.5,3.2-7.8,7.2c-3.4,0.9-6,4-6,7.7c0,4.4,3.6,8,8,8h27c4.4,0,8-3.6,8-8C46,30.4,43.2,27,39.5,26z"/>
  <path fill="#64b5f6" d="M22.5,19.5c-0.2,0-0.5,0-0.7,0c1.8-3.1,5.2-5.2,9-5.2c0.2,0,0.4,0,0.5,0c-1.8-2.4-4.7-4-7.9-4 c-4.6,0-8.4,3.1-9.6,7.3c0.5-0.1,0.9-0.1,1.4-0.1c1.6,0,3.2,0.5,4.5,1.3C20.5,18.9,21.5,19.2,22.5,19.5z"/>
  <path fill="#90caf9" d="M21.8,19.5c-0.9-0.3-1.9-0.5-2.9-0.6c-1.3-0.9-2.8-1.3-4.5-1.3c-0.5,0-0.9,0-1.4,0.1 c-0.4,1.4-0.6,2.8-0.6,4.4c0,2,0.4,3.9,1.2,5.6c0.8-0.7,1.7-1.2,2.8-1.5c0.3-4,3.7-7.2,7.8-7.2c0.2,0,0.4,0,0.5,0 c-0.3-0.1-0.5-0.1-0.8-0.2c-0.5,0.2-1,0.4-1.5,0.5C22.2,19.3,22,19.4,21.8,19.5z"/>
</svg>
