<svg viewBox="0 0 24 24" fill="none" xmlns="http://www.w3.org/2000/svg">
  <path fill="#0078D4" d="M10.5 18.5h8.25a3.75 3.75 0 0 0 .75-7.43 5.25 5.25 0 0 0-9.97-1.57A4.5 4.5 0 0 0 4.5 14a4.5 4.5 0 0 0 4.5 4.5h1.5z"/>
  <path fill="#0364B8" d="M10.5 18.5h8.25a3.75 3.75 0 0 0 .75-7.43 5.25 5.25 0 0 0-4.76-3.82 6 6 0 0 0-11.24 3 4.5 4.5 0 0 0 1.5 8.75h5.5z"/>
  <path fill="#1490DF" d="M6.75 18.5h12a3.75 3.75 0 0 0 .75-7.43A5.25 5.25 0 0 0 9.75 9a6 6 0 0 0-5.54 3.66A4.5 4.5 0 0 0 6.75 18.5z"/>
</svg>
